<?xml version="1.0" encoding="utf-8"?>
<!-- Generator: Adobe Illustrator 21.0.2, SVG Export Plug-In . SVG Version: 6.00 Build 0)  -->
<svg version="1.1" xmlns="http://www.w3.org/2000/svg" xmlns:xlink="http://www.w3.org/1999/xlink" x="0px" y="0px"
	 viewBox="0 0 516.1 146.6" style="enable-background:new 0 0 516.1 146.6;" xml:space="preserve">
<style type="text/css">
	.st0{fill:#231F20;}
	.st1{fill:#FFFFFF;}
	.st2{font-family:'BlairMdITCTTMedium';}
	.st3{font-size:8.3922px;}
	.st4{display:none;}
</style>
<g id="Layer_3">
	<g>
		<path class="st0" d="M160.4,142.7h-4.6l-17.1-18.4v18.4h-3.7v-22.4h4.6l17.1,18.4v-18.4h3.7V142.7z"/>
		<path class="st0" d="M192.9,142.7h-23.5v-22.4h22.6v3.3h-18.9v5.8h13.1v3.3h-13.1v6.6h19.8V142.7z"/>
		<path class="st0" d="M222.1,123.6h-10.7v19.1h-3.7v-19.1H197v-3.3h25.2V123.6z"/>
		<path class="st0" d="M261.4,120.3l-7.3,22.4h-4.8l-5.6-18.7l-5.6,18.7h-4.8l-7.4-22.4h4.1l5.6,18.8l5.6-18.8h4.7l5.6,18.8
			l5.6-18.8H261.4z"/>
		<path class="st0" d="M295,131.5c0,3.7-1.5,6.7-4.5,8.9c-2.6,2-5.9,3-9.9,3c-4,0-7.3-1-9.9-3c-3-2.3-4.5-5.2-4.5-8.9
			c0-3.6,1.5-6.6,4.6-8.9c2.7-2,6-3,9.9-3c3.9,0,7.2,1,9.8,3C293.4,124.9,295,127.9,295,131.5z M291.1,131.5c0-2.6-1.1-4.8-3.3-6.4
			c-1.9-1.4-4.3-2.1-7.2-2.1c-3.1,0-5.7,0.8-7.6,2.4c-2,1.6-2.9,3.6-2.9,6.1c0,2.5,1,4.6,2.9,6.2s4.5,2.3,7.7,2.3
			c3.2,0,5.7-0.8,7.6-2.4C290.1,136.1,291.1,134,291.1,131.5z"/>
		<path class="st0" d="M328.3,142.7H324l-6.1-8.6h-11.3v8.6h-3.7v-22.4h17.7c2.4,0,4.2,0.6,5.5,1.9c1.3,1.3,2,3,2,5.2
			c0,1.9-0.5,3.4-1.6,4.6c-1,1.1-2.4,1.8-4.2,2L328.3,142.7z M320,130.8c2.9,0,4.3-1.2,4.3-3.5c0-2.5-1.5-3.7-4.7-3.7h-13.1v7.2H320
			z"/>
		<path class="st0" d="M361.7,142.7h-4.8l-10.7-11.8l-6.8,5v6.8h-3.7v-22.4h3.7v11.6l15.7-11.6h5.4l-11.5,8.5L361.7,142.7z"/>
	</g>
	<text transform="matrix(1 0 0 1 493.6596 22.6123)" class="st1 st2 st3">TM</text>
</g>
<g id="Layer_2">
	<rect x="-39.9" y="-141.1" class="st4" width="1030" height="344.5"/>
</g>
<g id="Layer_1">
	<g>
		<path d="M12.7,72.2c-1.9,0-3.6,0.7-5,2.1c-1.4,1.4-2.1,3.1-2.1,5c0,1.9,0.7,3.6,2.1,4.9c1.4,1.4,3.1,2,5,2s3.6-0.7,5-2
			c1.4-1.4,2.1-3,2.1-4.9c0-1.9-0.7-3.6-2.1-5C16.3,72.9,14.6,72.2,12.7,72.2z"/>
		<path d="M103.4,63.7c-1,3.5-2.5,6.6-4.4,9.1c-1.9,2.5-4.1,4.5-6.4,6.1c-2.4,1.6-4.9,2.7-7.6,3.4c-2.7,0.7-5.4,1-8.1,1H53.6v-63H65
			V18H23.5v2.2h11.3v63H23.5v2.2h82.4v-22h-2.4L103.4,63.7z"/>
		<path d="M410.8,80.8c-0.8,0.6-1.8,1.3-2.8,2c-1,0.7-2.3,1-3.8,1c-1.4,0-2.5-0.2-3.2-0.6c-0.7-0.4-1.2-1.2-1.7-2.4
			c-0.4-1.3-0.8-3.1-1-5.4l-1-9.4c-0.3-3.4-1.2-6.2-2.6-8.2c-1.4-2-3.3-3.7-5.7-4.8c-2.3-1.1-5.1-2-8.3-2.6c-2.7-0.5-5.6-0.9-9-1.4
			c2.2-0.2,4.5-0.6,6.7-1c2.9-0.6,5.6-1.5,7.9-2.6c2.4-1.1,4.4-2.6,5.9-4.5c1.5-1.8,2.3-4.1,2.3-6.7c0-3.2-1-5.9-3-8.1
			c-2-2.1-4.5-3.8-7.5-5c-3-1.2-6.3-2.1-9.9-2.6c-3.6-0.5-7-0.8-10.2-0.8c-3.3,0-16.1,0-19.5,0.1c-3.4,0.1-6.8,0.1-10.2,0.1h-18.9
			h-0.1v2.2h0.1h11.4v41.5c0,2.9-0.2,5.8-0.6,8.5c-0.4,2.7-1.2,5.1-2.5,7.3c-1.3,2.1-3.3,3.8-5.9,5.1c-2.6,1.3-6.2,2-10.6,2
			c-4.4,0-8.1-0.4-11.1-1.2c-2.9-0.8-5.4-1.8-7.3-3c-1.9-1.2-3.4-2.6-4.4-4.2c-1-1.5-1.8-3.1-2.3-4.6c-0.5-1.5-0.8-3-0.8-4.4
			c-0.1-1.5-0.1-2.6-0.1-3.5V20.2h11.2V18h-48v2.2h10.1l-18.3,22L205.6,3h-48.7v2.2h20.6v58.5c0,0.9,0,2.1-0.1,3.5
			c-0.1,1.4-0.4,2.8-0.8,4.4c-0.5,1.5-1.2,3.1-2.3,4.6c-1,1.5-2.5,2.9-4.4,4.2c-1.9,1.2-4.4,2.3-7.3,3c-2.9,0.8-6.7,1.2-11.1,1.2
			c-4.4,0-8-0.7-10.6-2c-2.6-1.3-4.6-3-5.9-5.1c-1.3-2.1-2.2-4.6-2.5-7.3c-0.4-2.7-0.5-5.6-0.5-8.5V20.2h11.4V18h-41.6v2.2h11.5
			v43.2c0,2.8,0.4,5.7,1.3,8.4c0.8,2.8,2.6,5.3,5.3,7.5c2.6,2.2,6.4,4,11.3,5.3c4.9,1.3,11.4,2,19.4,2c4.9,0,9.2-0.4,12.6-1.3
			c3.4-0.8,6.3-2,8.5-3.3c2.3-1.4,4-2.9,5.2-4.7c1.2-1.7,2.1-3.4,2.6-5.2c0.6-1.7,0.9-3.4,1-4.9c0.1-1.6,0.1-2.8,0.1-3.8V5.2h4.3
			l39.1,48.9l-23.7,29.1h-10.3v2.2h24.3v-2.2h-10.6l22-27l35.2,44.1h45.8v-2.2h-24.9l-43.9-53.9l19.9-24h20.5v43.4
			c0,1,0,2.2,0.1,3.8c0.1,1.6,0.4,3.2,1,4.9c0.6,1.7,1.5,3.4,2.6,5.2c1.2,1.7,2.9,3.3,5.2,4.7c2.3,1.4,5.1,2.5,8.5,3.3
			c3.4,0.8,7.6,1.3,12.6,1.3c8,0,14.5-0.7,19.4-2c4.9-1.3,8.7-3.1,11.3-5.3c2.7-2.2,4.4-4.7,5.3-7.5c0.8-2.8,1.3-5.6,1.3-8.4v-13
			h16.8c3.8,0,6.7,0.5,8.8,1.6c2.1,1.1,3.6,2.5,4.6,4.3c1,1.8,1.7,3.9,2,6.2c0.3,2.4,0.5,4.8,0.7,7.4c0.1,1.7,0.3,3.5,0.6,5.4
			c0.3,2,1.1,3.8,2.4,5.5c1.3,1.7,3.2,3.1,5.9,4.2c2.6,1.1,6.2,1.7,10.8,1.7c2.2,0,4.1-0.1,5.6-0.3c1.5-0.2,2.8-0.5,3.8-0.9
			c1.1-0.4,2-0.9,2.8-1.4c0.8-0.6,1.6-1.1,2.4-1.7l0.5-0.4l-2-1.4L410.8,80.8z M345.4,20.2H364c1.1,0.1,2.1,0.4,3,0.6
			c1.9,0.6,3.5,1.5,4.6,2.7c1.1,1.2,1.9,2.8,2.4,4.7c0.5,1.9,0.7,4.2,0.7,6.9c0,1.7-0.1,3.3-0.4,4.9c-0.3,1.5-0.9,2.9-1.9,4.1
			c-1,1.2-2.6,2.2-4.6,2.9c-2.1,0.7-5,1.1-8.6,1.1h-13.7V20.2z"/>
		<polygon points="464.3,18 464.3,20.2 474.6,20.2 452.7,51.6 428.5,20.2 437.8,20.2 437.8,18 397.2,18 397.2,20.2 407,20.2 
			435.4,57.7 435.4,83.2 424.1,83.2 424.1,85.4 465.7,85.4 465.7,83.2 454.2,83.2 454.2,54.2 477.8,20.2 488.7,20.2 488.7,18 		"/>
	</g>
</g>
</svg>
